{"title":"Taylor Swift - I Knew You Were Trouble [Music Video] 1080p [Sbyk","uid":8002134,"size":102018059,"categoryP":"video","categoryS":"music_videos","magnet":"?xt=urn:btih:c370f1bd79c764156a81f3c68b04a31db52cf148&amp;dn=Taylor+Swift+-+I+Knew+You+Were+Trouble+%5BMusic+Video%5D+1080p+%5BSbyk&amp;tr=udp%3A%2F%2Ftracker.openbittorrent.com%3A80&amp;tr=udp%3A%2F%2Fopen.demonii.com%3A1337&amp;tr=udp%3A%2F%2Ftracker.coppersurfer.tk%3A6969&amp;tr=udp%3A%2F%2Fexodus.desync.com%3A6969","seeders":3,"leechers":0,"uploader":"Sbyky","files":-1,"time":1357797729,"description":" &lt;a href=&quot;http://www.shotpix.com/images/37449434737649390198.png]&quot; rel=&quot;nofollow&quot; target=&quot;_NEW&quot;&gt;http://www.shotpix.com/images/37449434737649390198.png]&lt;/a&gt;\n\nGeneral\nComplete name                            : Taylor Swift - I Knew You Were Trouble [Music Video] 1080p [Sbyky].mp4\nFormat                                   : MPEG-4\nFormat profile                           : Base Media / Version 2\nCodec ID                                 : mp42\nFile size                                : 97.3 MiB\nDuration                                 : 5mn 57s\nOverall bit rate mode                    : Variable\nOverall bit rate                         : 2 284 Kbps\nEncoded date                             : UTC 2012-12-12 01:49:01\nTagged date                              : UTC 2012-12-12 01:49:01\ngsst                                     : 0\ngstd                                     : 357516\ngssd                                     : BADC237E4HH1357557187952388\ngshh                                     :\n\nVideo\nID                                       : 1\nFormat                                   : AVC\nFormat/Info                              : Advanced Video Codec\nFormat profile                           : &lt;a class=&quot;__cf_email__&quot; href=&quot;/cdn-cgi/l/email-protection&quot; data-cfemail=&quot;f4bc9d939cb4b8c0dac4&quot;&gt;[email&amp;#160;protected]&lt;/a&gt;&lt;script cf-hash='f9e31' type=&quot;text/javascript&quot;&gt;\n/* &lt;![CDATA[ */!function(){try{var t=&quot;currentScript&quot;in document?document.currentScript:function(){for(var t=document.getElementsByTagName(&quot;script&quot;),e=t.length;e--;)if(t[e].getAttribute(&quot;cf-hash&quot;))return t[e]}();if(t&amp;&amp;t.previousSibling){var e,r,n,i,c=t.previousSibling,a=c.getAttribute(&quot;data-cfemail&quot;);if(a){for(e=&quot;&quot;,r=parseInt(a.substr(0,2),16),n=2;a.length-n;n+=2)i=parseInt(a.substr(n,2),16)^r,e+=String.fromCharCode(i);e=document.createTextNode(e),c.parentNode.replaceChild(e,c)}}}catch(u){}}();/* ]]&gt; */&lt;/script&gt;\nFormat settings, CABAC                   : Yes\nFormat settings, ReFrames                : 1 frame\nCodec ID                                 : avc1\nCodec ID/Info                            : Advanced Video Coding\nDuration                                 : 5mn 57s\nBit rate                                 : 2 089 Kbps\nMaximum bit rate                         : 4 398 Kbps\nWidth                                    : 1 920 pixels\nHeight                                   : 1 080 pixels\nDisplay aspect ratio                     : 16:9\nFrame rate mode                          : Constant\nFrame rate                               : 23.976 fps\nColor space                              : YUV\nChroma subsampling                       : 4:2:0\nBit depth                                : 8 bits\nScan type                                : Progressive\nBits/(Pixel*Frame)                       : 0.042\nStream size                              : 89.0 MiB (91%)\nTagged date                              : UTC 2012-12-12 01:49:02\n\nAudio\nID                                       : 2\nFormat                                   : AAC\nFormat/Info                              : Advanced Audio Codec\nFormat profile                           : LC\nCodec ID                                 : 40\nDuration                                 : 5mn 57s\nBit rate mode                            : Variable\nBit rate                                 : 192 Kbps\nMaximum bit rate                         : 203 Kbps\nChannel(s)                               : 2 channels\nChannel positions                        : Front: L R\nSampling rate                            : 44.1 KHz\nCompression mode                         : Lossy\nStream size                              : 8.18 MiB (8%)\nTitle                                    : IsoMedia File Produced by Google, 5-11-2011\nEncoded date                             : UTC 2012-12-12 01:49:02\nTagged date                              : UTC 2012-12-12 01:49:02\n\nShared By Sbyky &lt;a href=&quot;\nhttp://www.shotpix.com/images/65449402944248708647.gif&quot; rel=&quot;nofollow&quot; target=&quot;_NEW&quot;&gt;\nhttp://www.shotpix.com/images/65449402944248708647.gif&lt;/a&gt;","torrent":{"xt":"urn:btih:c370f1bd79c764156a81f3c68b04a31db52cf148","amp;dn":"Taylor+Swift+-+I+Knew+You+Were+Trouble+%5BMusic+Video%5D+1080p+%5BSbyk","amp;tr":["udp%3A%2F%2Ftracker.openbittorrent.com%3A80","udp%3A%2F%2Fopen.demonii.com%3A1337","udp%3A%2F%2Ftracker.coppersurfer.tk%3A6969","udp%3A%2F%2Fexodus.desync.com%3A6969"],"infoHash":"c370f1bd79c764156a81f3c68b04a31db52cf148","infoHashBuffer":{"type":"Buffer","data":[195,112,241,189,121,199,100,21,106,129,243,198,139,4,163,29,181,44,241,72]},"announce":[],"urlList":[]}}